<svg xmlns="http://www.w3.org/2000/svg" viewBox="0 0 194.25 50"><path d="M129.52,37.83h1a2.33,2.33,0,0,0,1.14-.22,1.2,1.2,0,0,0,.57-1.1,1.11,1.11,0,0,0-.6-1.07,2.4,2.4,0,0,0-1.18-.23h-1Zm.88-4.15a3.72,3.72,0,0,1,2.55.6,2.85,2.85,0,0,1,1,2.21,3,3,0,0,1-.91,2.19,3.33,3.33,0,0,1-2.43.69h-1.07v3h-1.74V33.68Z" fill="#fff"/><path d="M136.19,33.68h2.62a4.38,4.38,0,0,1,2.58.55,2.82,2.82,0,0,1,1.1,2.35A2.87,2.87,0,0,1,142,38.2a2.28,2.28,0,0,1-1.43.93l1.93,3.21H140.7l-2.32-4h.34a2.68,2.68,0,0,0,1.55-.31,1.63,1.63,0,0,0,.55-1.27,1.51,1.51,0,0,0-.64-1.25,2.31,2.31,0,0,0-1.23-.27h-1v7.13h-1.74Z" fill="#fff"/><path d="M146.27,38a2.8,2.8,0,1,0,2.81-3,2.84,2.84,0,0,0-2.81,3Zm-1.75.07a4.55,4.55,0,1,1,4.53,4.42,4.45,4.45,0,0,1-4.53-4.42Z" fill="#fff"/><path d="M157.9,37.83h1a2.33,2.33,0,0,0,1.14-.22,1.2,1.2,0,0,0,.57-1.1,1.11,1.11,0,0,0-.6-1.07,2.4,2.4,0,0,0-1.18-.23h-1Zm.88-4.15a3.72,3.72,0,0,1,2.55.6,2.85,2.85,0,0,1,1,2.21,3,3,0,0,1-.91,2.19,3.33,3.33,0,0,1-2.43.69H157.9v3h-1.74V33.68Z" fill="#fff"/><polygon points="164.62 33.68 169.47 33.68 169.47 35.21 166.36 35.21 166.36 37.18 169.41 37.18 169.41 38.71 166.36 38.71 166.36 40.81 169.47 40.81 169.47 42.34 164.62 42.34 164.62 33.68" fill="#fff"/><path d="M172.16,33.68h2.62a4.38,4.38,0,0,1,2.58.55,2.82,2.82,0,0,1,1.1,2.35A2.87,2.87,0,0,1,178,38.2a2.28,2.28,0,0,1-1.43.93l1.93,3.21h-1.83l-2.33-4h.35a2.68,2.68,0,0,0,1.55-.31,1.63,1.63,0,0,0,.55-1.27,1.51,1.51,0,0,0-.64-1.25,2.31,2.31,0,0,0-1.23-.27h-1v7.13h-1.74Z" fill="#fff"/><polygon points="182.04 35.21 180.17 35.21 180.17 33.68 185.64 33.68 185.64 35.21 183.78 35.21 183.78 42.34 182.04 42.34 182.04 35.21" fill="#fff"/><polygon points="189.86 39.24 187.21 33.68 189.09 33.68 190.73 37.61 192.38 33.68 194.25 33.68 191.61 39.24 191.61 42.34 189.86 42.34 189.86 39.24" fill="#fff"/><path d="M107,37.55c-2.37,0-3.68-1.61-3.87-3.87h14.56c0-7.7-3.41-12.12-11.3-12.12A10.22,10.22,0,0,0,95.87,32c0,6.08,3.91,9.58,9.54,10.31a17.73,17.73,0,0,0,3.28,0c3.87-.48,7.21-2.43,8.56-6.17h-7.09A3.89,3.89,0,0,1,107,37.55Zm.08-11.11a3.26,3.26,0,0,1,3.33,3.32h-7.24A3.6,3.6,0,0,1,107.06,26.44Z" fill="#fff"/><rect x="86.36" y="7.5" width="7.58" height="34.85" fill="#fff"/><rect x="76.23" y="7.5" width="7.58" height="34.85" fill="#fff"/><path d="M63.73,37.56c-2.38,0-3.68-1.62-3.87-3.88H74.41c0-7.7-3.41-12.12-11.3-12.12A10.21,10.21,0,0,0,52.62,32c0,6.08,3.91,9.58,9.53,10.31a17.83,17.83,0,0,0,3.29,0c3.86-.48,7.21-2.43,8.55-6.17H66.9a3.89,3.89,0,0,1-3.17,1.38m.07-11.12a3.26,3.26,0,0,1,3.33,3.32H59.89a3.6,3.6,0,0,1,3.91-3.32" fill="#fff"/><path d="M42.5,21.56a6.46,6.46,0,0,0-5.41,2.67H37V7.5H29.43V42.35h7.31V39.77h.08a5.9,5.9,0,0,0,4.34,2.58,9.08,9.08,0,0,0,2.64,0C48.59,41.55,51,36.54,51,31.9S49.17,21.56,42.5,21.56ZM40.07,36.94c-2.71,0-3.33-2.58-3.33-5s.62-4.92,3.33-4.92,3.32,2.56,3.32,4.9S42.77,36.94,40.07,36.94Z" fill="#fff"/><rect width="14.7" height="50" fill="#6e8878"/></svg>